PathFileType  4	(X/Y/Z) C:\Users\antoi\Documents\MyRepositories\mobilecap\ResultsAnalysis
DataRate	CameraRate	NumFrames	NumMarkers	Units	OrigDataRate	OrigDataStartFrame	OrigNumFrames
100.0	100.0	4	51	mm	100.0	116	132
Frame#	Time	r_knee			r_shank_antsup			r_ankle			r_calc			r_5meta			r_toe			L_knee			L_shank_antsup			L_ankle			L_calc			L_5meta			L_toe			r_sh2			r_sh3			r_sh4			L_sh2			L_sh3			r_thigh1			r_thigh2			r_thigh3			r_thigh4			r_thigh5			L_thigh1			L_thigh2			L_thigh3			L_thigh4			r.ASIS			r.PSIS			L.ASIS			L.PSIS			C7			R_Shoulder			L_Shoulder			R_Sternum			L_Sternum			R_humerus			R_elbow_med			R_elbow_lat			R_forearm			R_wrist_radius			R_wrist_ulna			L_humerus			L_elbow_med			L_elbow_lat			L_forearm			L_wrist_radius			L_wrist_ulna			R_HJC			L_HJC			R_HJC_reg			L_HJC_reg			
		X1	Y1	Z1	X2	Y2	Z2	X3	Y3	Z3	X4	Y4	Z4	X5	Y5	Z5	X6	Y6	Z6	X7	Y7	Z7	X8	Y8	Z8	X9	Y9	Z9	X10	Y10	Z10	X11	Y11	Z11	X12	Y12	Z12	X13	Y13	Z13	X14	Y14	Z14	X15	Y15	Z15	X16	Y16	Z16	X17	Y17	Z17	X18	Y18	Z18	X19	Y19	Z19	X20	Y20	Z20	X21	Y21	Z21	X22	Y22	Z22	X23	Y23	Z23	X24	Y24	Z24	X25	Y25	Z25	X26	Y26	Z26	X27	Y27	Z27	X28	Y28	Z28	X29	Y29	Z29	X30	Y30	Z30	X31	Y31	Z31	X32	Y32	Z32	X33	Y33	Z33	X34	Y34	Z34	X35	Y35	Z35	X36	Y36	Z36	X37	Y37	Z37	X38	Y38	Z38	X39	Y39	Z39	X40	Y40	Z40	X41	Y41	Z41	X42	Y42	Z42	X43	Y43	Z43	X44	Y44	Z44	X45	Y45	Z45	X46	Y46	Z46	X47	Y47	Z47	X48	Y48	Z48	X49	Y49	Z49	X50	Y50	Z50	X51	Y51	Z51	

116	1.15000000	1399.84691	482.36416	-68.31999	1451.69156	450.99467	-81.64305	1455.43642	87.48498	-121.72408	1403.70447	56.75138	-173.02677	1591.49913	44.35070	-88.56465	1627.14206	78.98230	-140.77514	1109.14984	460.76132	-335.79675	1084.30638	372.46483	-346.09987	857.87129	140.39562	-282.73942	785.06849	133.71938	-229.44268	940.49141	36.72308	-295.48903	987.60366	47.15988	-244.62380	1472.18058	337.18902	-100.84424	1388.86442	425.79184	-38.49995	1412.29234	312.44953	-45.26235	1018.93620	432.65969	-352.41109	944.27409	337.05502	-343.62043	1368.96204	783.09329	-113.86921	1415.05502	681.67459	-113.17495	1415.19080	657.50619	-49.54547	1321.43669	761.40859	-14.73589	1367.91461	656.71179	-17.73865	1227.11018	766.63704	-369.15459	1200.07605	628.81684	-368.05129	1116.19325	788.16714	-362.00891	1090.18442	654.68468	-336.58639	1322.41652	925.69052	-83.58014	1120.95454	956.98509	-129.45773	1293.32824	905.65867	-317.12747	1106.68894	960.25587	-228.07549	1175.23830	1426.92305	-212.32829	1225.57045	1394.07842	-48.43473	1240.89545	1374.98741	-365.64214	1285.59301	1328.08086	-187.84175	1287.76557	1323.44439	-226.40162	1147.61712	1165.48387	33.56597	1064.59424	1101.29828	-8.25696	1088.19459	1093.28770	48.43001	1086.52152	952.69717	72.83054	1077.29564	845.06499	63.78492	1044.22680	858.64488	91.20498	1299.10906	1158.66668	-444.42892	1289.23853	1037.71400	-406.96337	1314.87643	1052.67854	-463.05185	1452.36452	1007.64595	-445.01351	1546.08186	974.94790	-399.81971	1535.00072	938.88952	-424.28513	1242.06276	843.22119	-102.50729	1204.28681	841.34097	-289.39049	1251.10958	840.61019	-108.46143	1228.80495	845.73635	-262.66105	
117	1.16000000	1415.36146	483.33782	-68.98024	1465.29327	450.54696	-82.52924	1459.05797	87.40820	-121.87769	1405.25935	58.12029	-173.12067	1593.48187	40.33751	-89.31537	1630.38144	72.70160	-142.14934	1129.98652	458.81461	-335.67108	1102.56625	371.55377	-347.01625	867.72284	148.60377	-284.66298	795.01887	147.12304	-231.81549	942.83007	38.06600	-295.95626	990.26074	46.43434	-245.15311	1483.85375	336.26368	-102.49218	1404.30703	426.95918	-38.38946	1425.22566	313.18790	-45.02085	1039.61074	434.51077	-352.09583	961.63790	342.09187	-344.28961	1383.64430	784.35538	-115.39460	1429.88021	683.05624	-115.18480	1431.21237	659.18401	-51.50335	1338.15674	763.06605	-15.19815	1384.67812	658.47016	-18.81374	1243.60995	765.69363	-367.36578	1218.43442	627.52994	-367.25625	1132.38734	785.71984	-360.11356	1108.47003	651.77730	-335.14387	1337.57010	926.82480	-82.87385	1135.72888	957.56673	-128.66042	1308.63985	905.55516	-315.47898	1121.41525	959.93689	-227.38613	1189.12234	1427.00788	-210.73530	1239.88216	1394.00865	-46.99178	1254.16331	1374.95766	-364.56125	1299.74601	1328.24441	-186.59463	1301.68886	1323.66596	-225.20245	1163.82541	1164.56414	34.79743	1081.05472	1099.86072	-6.86096	1104.98045	1091.93103	49.72686	1104.44035	951.25120	73.81381	1095.49966	843.35164	64.39763	1062.96546	856.79561	92.17337	1310.07136	1157.67298	-443.38452	1299.31963	1036.79942	-405.52492	1324.79521	1051.37871	-461.85445	1462.28353	1006.29666	-444.08294	1556.17453	973.97398	-399.00749	1544.92944	937.67741	-423.28586	1257.27711	844.15558	-100.98145	1219.61493	841.06383	-287.86218	1266.35692	842.17008	-106.85777	1244.07480	845.87935	-260.53715	
118	1.17000000	1430.46067	484.65053	-69.43315	1478.13968	450.30624	-83.08621	1462.00801	87.67953	-121.86365	1406.37981	59.03671	-173.06605	1594.85749	37.70330	-89.70161	1632.51936	67.97279	-143.16566	1152.32844	456.89906	-336.08568	1122.41512	370.73463	-348.06031	879.51597	157.64657	-286.68625	807.29503	161.90607	-234.33269	945.80475	40.39601	-296.47061	993.38785	46.10685	-245.67460	1494.59295	335.61480	-103.73162	1418.87064	428.45025	-38.17609	1437.01901	314.26873	-44.62832	1061.99342	436.35163	-352.17560	980.89892	347.26416	-345.21371	1397.61037	785.99367	-117.04926	1444.10575	684.88762	-117.23064	1447.06401	661.51093	-53.40405	1354.63047	765.31113	-15.60678	1401.33860	660.85280	-19.71024	1260.38957	765.01573	-365.57571	1237.49952	626.45471	-366.63917	1148.76532	783.10827	-358.06363	1127.39237	648.73634	-333.92298	1352.42259	928.56196	-82.10963	1150.19753	958.58369	-128.00013	1323.78162	905.77168	-313.69386	1135.88974	959.92726	-226.84298	1203.01375	1427.49901	-209.17391	1254.20783	1394.30352	-45.60146	1267.40556	1375.39094	-363.53393	1313.82706	1328.79115	-185.41525	1315.57022	1324.28211	-224.05391	1180.49441	1163.90939	36.01245	1097.97005	1098.60196	-5.35510	1122.32101	1090.78386	51.10465	1123.21043	950.02179	74.86165	1114.73538	841.84926	65.10378	1082.72276	855.08858	93.26510	1320.72777	1157.07160	-442.36370	1308.78809	1036.43336	-404.19824	1334.21769	1050.40968	-460.67783	1471.58874	1004.88078	-443.18612	1565.48727	972.46327	-398.27748	1553.99958	936.07897	-422.41979	1272.21784	845.63909	-99.34190	1234.81266	841.08087	-286.23458	1281.35675	844.28896	-105.12930	1259.18881	846.39310	-258.25487	
119	1.18000000	1444.81754	486.06407	-69.68787	1490.29263	450.14607	-83.40112	1464.25223	88.13209	-121.73722	1407.09348	59.53774	-172.91367	1595.72759	36.22707	-89.86572	1633.66443	64.62610	-143.94739	1176.10517	455.08425	-337.02332	1143.88827	370.02552	-349.15174	893.34406	167.45496	-288.72637	822.09562	177.88352	-236.89430	949.57330	43.94924	-297.04750	997.07362	46.39173	-246.19537	1504.28796	335.07998	-104.58179	1432.28912	430.04651	-37.93472	1447.43060	315.46998	-44.23654	1086.09161	438.09056	-352.74888	1001.98245	352.42789	-346.27384	1411.00034	787.80310	-118.46351	1457.75023	686.89055	-118.95356	1462.49386	664.09764	-54.92135	1370.61350	767.81276	-15.79236	1417.50372	663.46588	-20.28034	1277.32469	764.63267	-363.86278	1257.15986	625.63689	-366.23167	1165.22190	780.34428	-355.82198	1146.84006	645.58743	-332.94588	1366.94612	930.76508	-81.26434	1164.36298	959.95115	-127.44463	1338.62627	906.24690	-311.86965	1150.07753	960.20649	-226.39950	1216.87772	1428.34710	-207.66556	1268.54435	1394.93782	-44.30401	1280.61516	1376.26394	-362.55588	1327.79371	1329.67903	-184.33476	1329.39695	1325.24123	-222.99446	1197.56800	1163.55162	37.20394	1115.29154	1097.55424	-3.74803	1140.15539	1089.88399	52.55895	1142.79777	949.05165	75.96099	1135.08576	840.64764	65.90092	1103.49539	853.57231	94.46582	1331.08224	1156.86428	-441.37573	1317.67272	1036.65372	-402.97851	1343.15687	1049.79889	-459.51020	1480.29845	1003.40376	-442.33062	1574.04924	970.43199	-397.63176	1562.22983	934.09387	-421.68921	1286.83727	847.55358	-97.63273	1249.76844	841.35497	-284.53969	1296.06666	846.77908	-103.29902	1274.03337	847.19221	-255.90735	
